<svg width="29" height="38" viewBox="0 0 29 38" fill="none" xmlns="http://www.w3.org/2000/svg">
<path d="M12.6273 18.8162H23.4071M13.9748 21.4853H23.4071M13.9748 24.1544H22.0597M13.6576 26.8235H20.395M12.6273 29.4926H18.0172M10.9627 32.1618H15.0051M11.795 34.8309H14.49M14.49 37.5H15.8374M6.90388 18.3067L5.41428 21.9947H9.02041L6.90388 27.7014M5.7729 15.9064C2.86076 15.9064 0.5 13.6072 0.5 10.7709C0.5 7.84064 3.00944 5.63547 5.94498 5.63547C5.94498 2.79923 8.30574 0.5 11.2179 0.5C12.9185 0.5 14.431 1.28406 15.3952 2.50125C16.3269 1.69316 17.5549 1.20216 18.9006 1.20216C21.5951 1.20216 23.8175 3.17046 24.1347 5.71126C26.6144 6.13023 28.5 8.23612 28.5 10.7709C28.5 13.6072 26.1392 15.9064 23.2271 15.9064H5.7729Z" stroke="white" stroke-linecap="round"/>
</svg>
