<svg width="35" height="32" viewBox="0 0 35 32" fill="none" xmlns="http://www.w3.org/2000/svg">
<path d="M0.5 16C0.5 24.5604 7.44289 31.5 16.0074 31.5C17.7988 31.5 19.5192 31.1964 21.12 30.6379C15.0674 28.5261 10.7252 22.7699 10.7252 16C10.7252 9.2301 15.0674 3.47391 21.12 1.36213C19.5192 0.8036 17.7988 0.5 16.0074 0.5C7.44289 0.5 0.5 7.43959 0.5 16Z" stroke="white" stroke-linejoin="round"/>
<path d="M24.2648 16.4337L25.4805 20.1735H29.4147L26.2319 22.4848L27.4476 26.2247L24.2648 23.9133L21.082 26.2247L22.2977 22.4848L19.1149 20.1735H23.0491L24.2648 16.4337Z" stroke="white" stroke-linejoin="round"/>
<path d="M31.5566 10.939L32.2515 13.0765H34.5L32.6809 14.3975L33.3757 16.535L31.5566 15.214L29.7375 16.535L30.4323 14.3975L28.6132 13.0765H30.8618L31.5566 10.939Z" stroke="white" stroke-linejoin="round"/>
<path d="M21.1202 7.59988L21.9677 10.207H24.7102L22.4915 11.8182L23.339 14.4253L21.1202 12.8141L18.9014 14.4253L19.7489 11.8182L17.5301 10.207H20.2727L21.1202 7.59988Z" stroke="white" stroke-linejoin="round"/>
</svg>
