<svg width="32" height="29" viewBox="0 0 32 29" fill="none" xmlns="http://www.w3.org/2000/svg">
<path d="M13.02 23.4671C14.632 25.3916 16.7526 26.8781 19.176 27.7213C17.7261 28.2258 16.1679 28.5 14.5454 28.5C6.78834 28.5 0.5 22.232 0.5 14.5C0.5 6.76801 6.78834 0.5 14.5454 0.5C16.1679 0.5 17.7261 0.774219 19.176 1.2787C13.6941 3.18612 9.76119 8.38526 9.76119 14.5C9.76119 14.5278 9.76127 14.5555 9.76144 14.5833M13.02 23.4671H11.4934C8.92981 23.4671 6.85164 21.3957 6.85164 18.8404C6.85164 16.8775 8.07284 15.2758 9.76144 14.5833M13.02 23.4671H26.8583C29.4218 23.4671 31.5 21.3957 31.5 18.8404C31.5 16.5567 29.8401 14.6595 27.6572 14.282C27.378 11.9929 25.4216 10.2196 23.0497 10.2196C21.865 10.2196 20.784 10.6619 19.9639 11.39C19.1151 10.2934 17.7836 9.58699 16.2866 9.58699C13.723 9.58699 11.6448 11.6584 11.6448 14.2137C10.9821 14.2137 10.3439 14.3444 9.76144 14.5833" stroke="white" stroke-linejoin="round"/>
</svg>
