<svg width="31" height="41" viewBox="0 0 31 41" fill="none" xmlns="http://www.w3.org/2000/svg">
<path d="M15.5 31.4746L18.1055 35.9873C19.2634 37.9929 17.816 40.5 15.5 40.5C13.1841 40.5 11.7367 37.9929 12.8946 35.9873L15.5 31.4746Z" stroke="white"/>
<path d="M7.99997 22.1667L10.6054 26.6794C11.7634 28.685 10.3159 31.1921 7.99997 31.1921C5.68404 31.1921 4.23658 28.685 5.39455 26.6794L7.99997 22.1667Z" stroke="white"/>
<path d="M21.7766 20.5L24.382 25.0127C25.54 27.0184 24.0926 29.5254 21.7766 29.5254C19.4607 29.5254 18.0132 27.0184 19.1712 25.0127L21.7766 20.5Z" stroke="white"/>
<path d="M0.5 11.6111C0.5 14.6794 3.02938 17.1667 6.14953 17.1667H24.8505C27.9706 17.1667 30.5 14.6794 30.5 11.6111C30.5 8.86894 28.4797 6.59079 25.8229 6.13754C25.483 3.38891 23.1019 1.2596 20.215 1.2596C18.7731 1.2596 17.4574 1.79076 16.4592 2.66496C15.4261 1.34819 13.8055 0.5 11.9834 0.5C8.86329 0.5 6.33391 2.98731 6.33391 6.05556C3.18869 6.05556 0.5 8.44112 0.5 11.6111Z" stroke="white"/>
</svg>
