<svg width="31" height="41" viewBox="0 0 31 41" fill="none" xmlns="http://www.w3.org/2000/svg">
<path d="M22.096 20.5L20.5 24.4896H24.3637L22.096 30.6632M16.013 31.4746L18.6185 35.9873C19.7764 37.9929 18.329 40.5 16.013 40.5C13.6971 40.5 12.2497 37.9929 13.4076 35.9873L16.013 31.4746ZM8.51297 22.1667L11.1184 26.6794C12.2764 28.685 10.8289 31.1921 8.51297 31.1921C6.19704 31.1921 4.74958 28.685 5.90755 26.6794L8.51297 22.1667ZM6.14953 17.1667C3.02938 17.1667 0.5 14.6794 0.5 11.6111C0.5 8.44112 3.18869 6.05556 6.33391 6.05556C6.33391 2.98731 8.86329 0.5 11.9834 0.5C13.8055 0.5 15.4261 1.34819 16.4592 2.66496C17.4574 1.79076 18.7731 1.2596 20.215 1.2596C23.1019 1.2596 25.483 3.38891 25.8229 6.13754C28.4797 6.59079 30.5 8.86894 30.5 11.6111C30.5 14.6794 27.9706 17.1667 24.8505 17.1667H6.14953Z" stroke="white" stroke-linecap="round"/>
</svg>
