<svg width="33" height="34" viewBox="0 0 33 34" fill="none" xmlns="http://www.w3.org/2000/svg">
<path d="M9.76579 7.9093L6.61144 3.6511M5.60398 13.5277L0.500122 11.9012M5.60398 20.4723L0.500122 22.0988M9.76579 26.0907L6.61144 30.3489M16.5001 28.2366V33.5M23.2345 26.0907L26.3888 30.3489M27.3963 20.4723L32.5001 22.0988M27.3963 13.5277L32.5001 11.9012M23.2345 7.9093L26.3888 3.6511M16.5001 5.76343V0.5M24.3025 17C24.3025 21.2264 20.8093 24.6525 16.5001 24.6525C12.191 24.6525 8.69775 21.2264 8.69775 17C8.69775 12.7736 12.191 9.3475 16.5001 9.3475C20.8093 9.3475 24.3025 12.7736 24.3025 17Z" stroke="white" stroke-linecap="round"/>
</svg>
